<svg xmlns="http://www.w3.org/2000/svg" version="1.1" width="96" height="96" viewbox="0 0 96 96"><rect x="0" y="0" width="96" height="96" fill="transparent"></rect><g transform="translate(15, 80) scale(2)"><path d="M15.36-33.98L15.36-33.98Q15.6-34.37 16.46-34.37L16.46-34.37Q16.61-34.37 16.7-34.37L16.7-34.37Q17.38-34.37 17.54-34.32 17.71-34.27 17.86-33.98L17.86-33.98Q17.95-33.89 20.33-26.23 22.7-18.58 25.1-10.85 27.5-3.12 27.6-2.98 27.7-2.83 27.79-2.71 27.89-2.59 27.98-2.52 28.08-2.45 28.27-2.4 28.46-2.35 28.56-2.3 28.66-2.26 28.92-2.26 29.18-2.26 29.33-2.23 29.47-2.21 29.86-2.21 30.24-2.21 30.43-2.21L30.43-2.21 31.73-2.21 31.73 0 31.34 0Q30.62-0.14 25.54-0.14L25.54-0.14Q19.78-0.14 18.72 0L18.72 0 18.19 0 18.19-2.21 18.82-2.21Q22.27-2.21 22.27-3.12L22.27-3.12Q22.22-3.31 18.72-14.59 15.22-25.87 15.17-25.87L15.17-25.87Q14.11-25.87 12.43-20.42 10.75-14.98 9.6-9.5L9.6-9.5 8.5-4.03Q8.5-3.89 8.59-3.7L8.59-3.7Q8.88-3.07 9.82-2.64 10.75-2.21 11.9-2.21L11.9-2.21 12.14-2.21 12.14 0 11.76 0Q10.94-0.14 6.24-0.14L6.24-0.14Q2.35-0.14 1.82 0L1.82 0 1.54 0 1.54-2.21 2.16-2.21Q5.38-2.45 6.1-4.37L6.1-4.37Q6.14-4.42 10.75-19.18 15.36-33.94 15.36-33.98Z" fill="#fff"></path></g></svg>
