<?xml version="1.0" encoding="iso-8859-1"?>
<!-- Generator: Adobe Illustrator 14.0.0, SVG Export Plug-In . SVG Version: 6.00 Build 43363)  -->
<!DOCTYPE svg PUBLIC "-//W3C//DTD SVG 1.1//EN" "http://www.w3.org/Graphics/SVG/1.1/DTD/svg11.dtd">
<svg version="1.1" xmlns="http://www.w3.org/2000/svg" xmlns:xlink="http://www.w3.org/1999/xlink" x="0px" y="0px" width="792px"
	height="612px" viewBox="0 0 792 612" style="enable-background:new 0 0 792 612; padding-top: 50px;" xml:space="preserve">

<g id="Layer_2">
	<path style="fill:none;stroke: #344966;stroke-width:3;" d="M17.902,114.475h26.949c2.296,0,12.876-10.182,20.063-10.182
		c7.186,0,10.83,10.182,12.576,10.182h18.266l7.187,10.779l7.485-100.91l5.091,114.984l6.887-24.554h24.41
		c3.239,0,14.816-16.769,20.206-16.769s11.08,16.47,13.475,16.47c2.845,0,26.665,0,26.665,0l27.757,0
		c2.296,0,12.875-10.181,20.062-10.181c7.186,0,10.831,10.181,12.577,10.181h18.266l7.187,10.779l7.485-100.91l5.091,114.984
		l6.888-24.555h24.41c3.24,0,14.817-16.768,20.207-16.768s11.079,16.469,13.474,16.469c2.845,0,26.666,0,26.666,0h27.813
		c2.297,0,12.877-10.181,20.063-10.181s10.829,10.181,12.576,10.181h18.265l7.188,10.779l7.485-100.91l5.092,114.984l6.887-24.555
		h24.409c3.238,0,14.816-16.768,20.206-16.768s11.08,16.469,13.476,16.469c2.845,0,26.664,0,26.664,0h27.815
		c2.296,0,12.875-10.181,20.063-10.181c7.187,0,10.829,10.181,12.576,10.181h18.265l7.188,10.779l7.486-100.91l5.091,114.984
		l6.887-24.555h24.409c3.238,0,14.816-16.768,20.206-16.768s11.079,16.469,13.476,16.469c2.846,0,26.664,0,26.664,0"/>
</g>
</svg>
